<mxfile host="app.diagrams.net" agent="Mozilla/5.0 (Macintosh; Intel Mac OS X 10_15_7) AppleWebKit/605.1.15 (KHTML, like Gecko) Version/17.6 Safari/605.1.15" version="24.7.16">
  <diagram name="Page-1" id="CSr0-xxzhdulide7Oy_S">
    <mxGraphModel dx="2052" dy="1384" grid="1" gridSize="10" guides="1" tooltips="1" connect="1" arrows="1" fold="1" page="1" pageScale="1" pageWidth="1700" pageHeight="1100" math="0" shadow="0">
      <root>
        <mxCell id="0" />
        <mxCell id="1" parent="0" />
        <mxCell id="1_nLKr7kXAnKaK0DtW3I-2" value="Accessors and mutators have been omitted from this diagram for the sake of brevity" style="shape=note;size=20;whiteSpace=wrap;html=1;" parent="1" vertex="1">
          <mxGeometry x="40" y="40" width="130" height="120" as="geometry" />
        </mxCell>
        <mxCell id="_dkzII2BD8TlYQ18vSjq-22" value="Guest" style="swimlane;fontStyle=0;childLayout=stackLayout;horizontal=1;startSize=30;horizontalStack=0;resizeParent=1;resizeParentMax=0;resizeLast=0;collapsible=1;marginBottom=0;whiteSpace=wrap;html=1;" parent="1" vertex="1">
          <mxGeometry x="1110" y="1370" width="140" height="300" as="geometry">
            <mxRectangle x="300" y="115" width="70" height="30" as="alternateBounds" />
          </mxGeometry>
        </mxCell>
        <mxCell id="_dkzII2BD8TlYQ18vSjq-23" value="- eventID: int" style="text;strokeColor=none;fillColor=none;align=left;verticalAlign=middle;spacingLeft=4;spacingRight=4;overflow=hidden;points=[[0,0.5],[1,0.5]];portConstraint=eastwest;rotatable=0;whiteSpace=wrap;html=1;" parent="_dkzII2BD8TlYQ18vSjq-22" vertex="1">
          <mxGeometry y="30" width="140" height="30" as="geometry" />
        </mxCell>
        <mxCell id="_dkzII2BD8TlYQ18vSjq-24" value="- email: string" style="text;align=left;verticalAlign=middle;spacingLeft=4;spacingRight=4;overflow=hidden;points=[[0,0.5],[1,0.5]];portConstraint=eastwest;rotatable=0;whiteSpace=wrap;html=1;fixDash=0;strokeColor=none;" parent="_dkzII2BD8TlYQ18vSjq-22" vertex="1">
          <mxGeometry y="60" width="140" height="30" as="geometry" />
        </mxCell>
        <mxCell id="ZCMRn5ar2wK1mYu21y1M-6" value="- fname: string" style="text;align=left;verticalAlign=middle;spacingLeft=4;spacingRight=4;overflow=hidden;points=[[0,0.5],[1,0.5]];portConstraint=eastwest;rotatable=0;whiteSpace=wrap;html=1;fixDash=0;strokeColor=none;" parent="_dkzII2BD8TlYQ18vSjq-22" vertex="1">
          <mxGeometry y="90" width="140" height="30" as="geometry" />
        </mxCell>
        <mxCell id="ZCMRn5ar2wK1mYu21y1M-7" value="- lname: string" style="text;align=left;verticalAlign=middle;spacingLeft=4;spacingRight=4;overflow=hidden;points=[[0,0.5],[1,0.5]];portConstraint=eastwest;rotatable=0;whiteSpace=wrap;html=1;fixDash=0;strokeColor=none;" parent="_dkzII2BD8TlYQ18vSjq-22" vertex="1">
          <mxGeometry y="120" width="140" height="30" as="geometry" />
        </mxCell>
        <mxCell id="ZCMRn5ar2wK1mYu21y1M-61" value="- sent: boolean" style="text;align=left;verticalAlign=middle;spacingLeft=4;spacingRight=4;overflow=hidden;points=[[0,0.5],[1,0.5]];portConstraint=eastwest;rotatable=0;whiteSpace=wrap;html=1;fixDash=0;strokeColor=none;" parent="_dkzII2BD8TlYQ18vSjq-22" vertex="1">
          <mxGeometry y="150" width="140" height="30" as="geometry" />
        </mxCell>
        <mxCell id="_dkzII2BD8TlYQ18vSjq-25" value="- responded: boolean" style="text;strokeColor=none;fillColor=none;align=left;verticalAlign=middle;spacingLeft=4;spacingRight=4;overflow=hidden;points=[[0,0.5],[1,0.5]];portConstraint=eastwest;rotatable=0;whiteSpace=wrap;html=1;" parent="_dkzII2BD8TlYQ18vSjq-22" vertex="1">
          <mxGeometry y="180" width="140" height="30" as="geometry" />
        </mxCell>
        <mxCell id="ZCMRn5ar2wK1mYu21y1M-5" value="- accepted: boolean" style="text;strokeColor=none;fillColor=none;align=left;verticalAlign=middle;spacingLeft=4;spacingRight=4;overflow=hidden;points=[[0,0.5],[1,0.5]];portConstraint=eastwest;rotatable=0;whiteSpace=wrap;html=1;" parent="_dkzII2BD8TlYQ18vSjq-22" vertex="1">
          <mxGeometry y="210" width="140" height="30" as="geometry" />
        </mxCell>
        <mxCell id="ZCMRn5ar2wK1mYu21y1M-3" value="- childCount: int" style="text;strokeColor=none;fillColor=none;align=left;verticalAlign=middle;spacingLeft=4;spacingRight=4;overflow=hidden;points=[[0,0.5],[1,0.5]];portConstraint=eastwest;rotatable=0;whiteSpace=wrap;html=1;" parent="_dkzII2BD8TlYQ18vSjq-22" vertex="1">
          <mxGeometry y="240" width="140" height="30" as="geometry" />
        </mxCell>
        <mxCell id="ZCMRn5ar2wK1mYu21y1M-4" value="- guestCount: boolean" style="text;strokeColor=none;fillColor=none;align=left;verticalAlign=middle;spacingLeft=4;spacingRight=4;overflow=hidden;points=[[0,0.5],[1,0.5]];portConstraint=eastwest;rotatable=0;whiteSpace=wrap;html=1;" parent="_dkzII2BD8TlYQ18vSjq-22" vertex="1">
          <mxGeometry y="270" width="140" height="30" as="geometry" />
        </mxCell>
        <mxCell id="ZCMRn5ar2wK1mYu21y1M-73" value="Message" style="swimlane;fontStyle=0;childLayout=stackLayout;horizontal=1;startSize=30;horizontalStack=0;resizeParent=1;resizeParentMax=0;resizeLast=0;collapsible=1;marginBottom=0;whiteSpace=wrap;html=1;" parent="1" vertex="1">
          <mxGeometry x="1140" y="1720" width="140" height="180" as="geometry" />
        </mxCell>
        <mxCell id="ZCMRn5ar2wK1mYu21y1M-74" value="- eventID: int" style="text;strokeColor=none;fillColor=none;align=left;verticalAlign=middle;spacingLeft=4;spacingRight=4;overflow=hidden;points=[[0,0.5],[1,0.5]];portConstraint=eastwest;rotatable=0;whiteSpace=wrap;html=1;" parent="ZCMRn5ar2wK1mYu21y1M-73" vertex="1">
          <mxGeometry y="30" width="140" height="30" as="geometry" />
        </mxCell>
        <mxCell id="ZCMRn5ar2wK1mYu21y1M-75" value="- email: string" style="text;strokeColor=none;fillColor=none;align=left;verticalAlign=middle;spacingLeft=4;spacingRight=4;overflow=hidden;points=[[0,0.5],[1,0.5]];portConstraint=eastwest;rotatable=0;whiteSpace=wrap;html=1;" parent="ZCMRn5ar2wK1mYu21y1M-73" vertex="1">
          <mxGeometry y="60" width="140" height="30" as="geometry" />
        </mxCell>
        <mxCell id="ZCMRn5ar2wK1mYu21y1M-76" value="- content: string" style="text;strokeColor=none;fillColor=none;align=left;verticalAlign=middle;spacingLeft=4;spacingRight=4;overflow=hidden;points=[[0,0.5],[1,0.5]];portConstraint=eastwest;rotatable=0;whiteSpace=wrap;html=1;" parent="ZCMRn5ar2wK1mYu21y1M-73" vertex="1">
          <mxGeometry y="90" width="140" height="30" as="geometry" />
        </mxCell>
        <mxCell id="ZCMRn5ar2wK1mYu21y1M-77" value="- date: Date" style="text;strokeColor=none;fillColor=none;align=left;verticalAlign=middle;spacingLeft=4;spacingRight=4;overflow=hidden;points=[[0,0.5],[1,0.5]];portConstraint=eastwest;rotatable=0;whiteSpace=wrap;html=1;" parent="ZCMRn5ar2wK1mYu21y1M-73" vertex="1">
          <mxGeometry y="120" width="140" height="30" as="geometry" />
        </mxCell>
        <mxCell id="ZCMRn5ar2wK1mYu21y1M-78" value="- accepted: boolean" style="text;strokeColor=none;fillColor=none;align=left;verticalAlign=middle;spacingLeft=4;spacingRight=4;overflow=hidden;points=[[0,0.5],[1,0.5]];portConstraint=eastwest;rotatable=0;whiteSpace=wrap;html=1;" parent="ZCMRn5ar2wK1mYu21y1M-73" vertex="1">
          <mxGeometry y="150" width="140" height="30" as="geometry" />
        </mxCell>
        <mxCell id="ZCMRn5ar2wK1mYu21y1M-24" value="Event" style="swimlane;fontStyle=0;childLayout=stackLayout;horizontal=1;startSize=30;horizontalStack=0;resizeParent=1;resizeParentMax=0;resizeLast=0;collapsible=1;marginBottom=0;whiteSpace=wrap;html=1;" parent="1" vertex="1">
          <mxGeometry x="860" y="1370" width="190" height="570" as="geometry">
            <mxRectangle x="70" y="45" width="70" height="30" as="alternateBounds" />
          </mxGeometry>
        </mxCell>
        <mxCell id="ZCMRn5ar2wK1mYu21y1M-25" value="- eventID: int" style="text;strokeColor=none;fillColor=none;align=left;verticalAlign=middle;spacingLeft=4;spacingRight=4;overflow=hidden;points=[[0,0.5],[1,0.5]];portConstraint=eastwest;rotatable=0;whiteSpace=wrap;html=1;" parent="ZCMRn5ar2wK1mYu21y1M-24" vertex="1">
          <mxGeometry y="30" width="190" height="30" as="geometry" />
        </mxCell>
        <mxCell id="ZCMRn5ar2wK1mYu21y1M-26" value="- hostEmail: string" style="text;strokeColor=none;fillColor=none;align=left;verticalAlign=middle;spacingLeft=4;spacingRight=4;overflow=hidden;points=[[0,0.5],[1,0.5]];portConstraint=eastwest;rotatable=0;whiteSpace=wrap;html=1;" parent="ZCMRn5ar2wK1mYu21y1M-24" vertex="1">
          <mxGeometry y="60" width="190" height="30" as="geometry" />
        </mxCell>
        <mxCell id="ZCMRn5ar2wK1mYu21y1M-43" value="- hostName: string" style="text;strokeColor=none;fillColor=none;align=left;verticalAlign=middle;spacingLeft=4;spacingRight=4;overflow=hidden;points=[[0,0.5],[1,0.5]];portConstraint=eastwest;rotatable=0;whiteSpace=wrap;html=1;" parent="ZCMRn5ar2wK1mYu21y1M-24" vertex="1">
          <mxGeometry y="90" width="190" height="30" as="geometry" />
        </mxCell>
        <mxCell id="ZCMRn5ar2wK1mYu21y1M-27" value="- eventName: string" style="text;strokeColor=none;fillColor=none;align=left;verticalAlign=middle;spacingLeft=4;spacingRight=4;overflow=hidden;points=[[0,0.5],[1,0.5]];portConstraint=eastwest;rotatable=0;whiteSpace=wrap;html=1;" parent="ZCMRn5ar2wK1mYu21y1M-24" vertex="1">
          <mxGeometry y="120" width="190" height="30" as="geometry" />
        </mxCell>
        <mxCell id="ZCMRn5ar2wK1mYu21y1M-29" value="- Location: string" style="text;strokeColor=none;fillColor=none;align=left;verticalAlign=middle;spacingLeft=4;spacingRight=4;overflow=hidden;points=[[0,0.5],[1,0.5]];portConstraint=eastwest;rotatable=0;whiteSpace=wrap;html=1;" parent="ZCMRn5ar2wK1mYu21y1M-24" vertex="1">
          <mxGeometry y="150" width="190" height="30" as="geometry" />
        </mxCell>
        <mxCell id="ZCMRn5ar2wK1mYu21y1M-30" value="- Start: Date" style="text;strokeColor=none;fillColor=none;align=left;verticalAlign=middle;spacingLeft=4;spacingRight=4;overflow=hidden;points=[[0,0.5],[1,0.5]];portConstraint=eastwest;rotatable=0;whiteSpace=wrap;html=1;" parent="ZCMRn5ar2wK1mYu21y1M-24" vertex="1">
          <mxGeometry y="180" width="190" height="30" as="geometry" />
        </mxCell>
        <mxCell id="ZCMRn5ar2wK1mYu21y1M-31" value="- End: Date" style="text;strokeColor=none;fillColor=none;align=left;verticalAlign=middle;spacingLeft=4;spacingRight=4;overflow=hidden;points=[[0,0.5],[1,0.5]];portConstraint=eastwest;rotatable=0;whiteSpace=wrap;html=1;" parent="ZCMRn5ar2wK1mYu21y1M-24" vertex="1">
          <mxGeometry y="210" width="190" height="30" as="geometry" />
        </mxCell>
        <mxCell id="ZCMRn5ar2wK1mYu21y1M-32" value="- isPublic: boolean" style="text;strokeColor=none;fillColor=none;align=left;verticalAlign=middle;spacingLeft=4;spacingRight=4;overflow=hidden;points=[[0,0.5],[1,0.5]];portConstraint=eastwest;rotatable=0;whiteSpace=wrap;html=1;" parent="ZCMRn5ar2wK1mYu21y1M-24" vertex="1">
          <mxGeometry y="240" width="190" height="30" as="geometry" />
        </mxCell>
        <mxCell id="ZCMRn5ar2wK1mYu21y1M-33" value="- reoccurs: boolean" style="text;strokeColor=none;fillColor=none;align=left;verticalAlign=middle;spacingLeft=4;spacingRight=4;overflow=hidden;points=[[0,0.5],[1,0.5]];portConstraint=eastwest;rotatable=0;whiteSpace=wrap;html=1;" parent="ZCMRn5ar2wK1mYu21y1M-24" vertex="1">
          <mxGeometry y="270" width="190" height="30" as="geometry" />
        </mxCell>
        <mxCell id="ZCMRn5ar2wK1mYu21y1M-34" value="- reoccurEnd: Date" style="text;strokeColor=none;fillColor=none;align=left;verticalAlign=middle;spacingLeft=4;spacingRight=4;overflow=hidden;points=[[0,0.5],[1,0.5]];portConstraint=eastwest;rotatable=0;whiteSpace=wrap;html=1;" parent="ZCMRn5ar2wK1mYu21y1M-24" vertex="1">
          <mxGeometry y="300" width="190" height="30" as="geometry" />
        </mxCell>
        <mxCell id="ZCMRn5ar2wK1mYu21y1M-49" value="- requestChildNum: boolean" style="shape=partialRectangle;connectable=0;fillColor=none;top=0;left=0;bottom=0;right=0;align=left;spacingLeft=6;overflow=hidden;whiteSpace=wrap;html=1;" parent="ZCMRn5ar2wK1mYu21y1M-24" vertex="1">
          <mxGeometry y="330" width="190" height="30" as="geometry">
            <mxRectangle width="260" height="30" as="alternateBounds" />
          </mxGeometry>
        </mxCell>
        <mxCell id="ZCMRn5ar2wK1mYu21y1M-52" value="- notifyHost: boolean" style="shape=partialRectangle;connectable=0;fillColor=none;top=0;left=0;bottom=0;right=0;align=left;spacingLeft=6;overflow=hidden;whiteSpace=wrap;html=1;" parent="ZCMRn5ar2wK1mYu21y1M-24" vertex="1">
          <mxGeometry y="360" width="190" height="30" as="geometry">
            <mxRectangle width="260" height="30" as="alternateBounds" />
          </mxGeometry>
        </mxCell>
        <mxCell id="ZCMRn5ar2wK1mYu21y1M-51" value="- maxAdditionalGuests: int" style="shape=partialRectangle;connectable=0;fillColor=none;top=0;left=0;bottom=0;right=0;align=left;spacingLeft=6;overflow=hidden;whiteSpace=wrap;html=1;" parent="ZCMRn5ar2wK1mYu21y1M-24" vertex="1">
          <mxGeometry y="390" width="190" height="30" as="geometry">
            <mxRectangle width="260" height="30" as="alternateBounds" />
          </mxGeometry>
        </mxCell>
        <mxCell id="ZCMRn5ar2wK1mYu21y1M-50" value="- limitAdditionalGuests: boolean" style="shape=partialRectangle;connectable=0;fillColor=none;top=0;left=0;bottom=0;right=0;align=left;spacingLeft=6;overflow=hidden;whiteSpace=wrap;html=1;" parent="ZCMRn5ar2wK1mYu21y1M-24" vertex="1">
          <mxGeometry y="420" width="190" height="30" as="geometry">
            <mxRectangle width="260" height="30" as="alternateBounds" />
          </mxGeometry>
        </mxCell>
        <mxCell id="ZCMRn5ar2wK1mYu21y1M-60" value="- font: string" style="text;strokeColor=none;fillColor=none;align=left;verticalAlign=middle;spacingLeft=4;spacingRight=4;overflow=hidden;points=[[0,0.5],[1,0.5]];portConstraint=eastwest;rotatable=0;whiteSpace=wrap;html=1;" parent="ZCMRn5ar2wK1mYu21y1M-24" vertex="1">
          <mxGeometry y="450" width="190" height="30" as="geometry" />
        </mxCell>
        <mxCell id="ZCMRn5ar2wK1mYu21y1M-59" value="- fontColor: string" style="text;strokeColor=none;fillColor=none;align=left;verticalAlign=middle;spacingLeft=4;spacingRight=4;overflow=hidden;points=[[0,0.5],[1,0.5]];portConstraint=eastwest;rotatable=0;whiteSpace=wrap;html=1;" parent="ZCMRn5ar2wK1mYu21y1M-24" vertex="1">
          <mxGeometry y="480" width="190" height="30" as="geometry" />
        </mxCell>
        <mxCell id="ZCMRn5ar2wK1mYu21y1M-58" value="- backgroundColor: string" style="text;strokeColor=none;fillColor=none;align=left;verticalAlign=middle;spacingLeft=4;spacingRight=4;overflow=hidden;points=[[0,0.5],[1,0.5]];portConstraint=eastwest;rotatable=0;whiteSpace=wrap;html=1;" parent="ZCMRn5ar2wK1mYu21y1M-24" vertex="1">
          <mxGeometry y="510" width="190" height="30" as="geometry" />
        </mxCell>
        <mxCell id="ZCMRn5ar2wK1mYu21y1M-57" value="- backgroundImage: image" style="text;strokeColor=none;fillColor=none;align=left;verticalAlign=middle;spacingLeft=4;spacingRight=4;overflow=hidden;points=[[0,0.5],[1,0.5]];portConstraint=eastwest;rotatable=0;whiteSpace=wrap;html=1;" parent="ZCMRn5ar2wK1mYu21y1M-24" vertex="1">
          <mxGeometry y="540" width="190" height="30" as="geometry" />
        </mxCell>
        <mxCell id="_dkzII2BD8TlYQ18vSjq-1" value="Database" style="swimlane;fontStyle=0;childLayout=stackLayout;horizontal=1;startSize=30;horizontalStack=0;resizeParent=1;resizeParentMax=0;resizeLast=0;collapsible=1;marginBottom=0;whiteSpace=wrap;html=1;" parent="1" vertex="1">
          <mxGeometry x="1330" y="261" width="295" height="560" as="geometry" />
        </mxCell>
        <mxCell id="_dkzII2BD8TlYQ18vSjq-4" value="- connection: data" style="text;strokeColor=default;fillColor=none;align=left;verticalAlign=middle;spacingLeft=4;spacingRight=4;overflow=hidden;points=[[0,0.5],[1,0.5]];portConstraint=eastwest;rotatable=0;whiteSpace=wrap;html=1;" parent="_dkzII2BD8TlYQ18vSjq-1" vertex="1">
          <mxGeometry y="30" width="295" height="30" as="geometry" />
        </mxCell>
        <mxCell id="_dkzII2BD8TlYQ18vSjq-7" value="+ validateUser(email: string, password: string): Integer" style="text;align=left;verticalAlign=middle;spacingLeft=4;spacingRight=4;overflow=hidden;points=[[0,0.5],[1,0.5]];portConstraint=eastwest;rotatable=0;whiteSpace=wrap;html=1;strokeColor=none;" parent="_dkzII2BD8TlYQ18vSjq-1" vertex="1">
          <mxGeometry y="60" width="295" height="40" as="geometry" />
        </mxCell>
        <mxCell id="_dkzII2BD8TlYQ18vSjq-8" value="+ createAccount(email: string, password: string, fname: string, lname: string): int" style="text;align=left;verticalAlign=middle;spacingLeft=4;spacingRight=4;overflow=hidden;points=[[0,0.5],[1,0.5]];portConstraint=eastwest;rotatable=0;whiteSpace=wrap;html=1;strokeColor=none;" parent="_dkzII2BD8TlYQ18vSjq-1" vertex="1">
          <mxGeometry y="100" width="295" height="40" as="geometry" />
        </mxCell>
        <mxCell id="_dkzII2BD8TlYQ18vSjq-9" value="+ getResetCode(email: string): string" style="text;align=left;verticalAlign=middle;spacingLeft=4;spacingRight=4;overflow=hidden;points=[[0,0.5],[1,0.5]];portConstraint=eastwest;rotatable=0;whiteSpace=wrap;html=1;strokeColor=none;" parent="_dkzII2BD8TlYQ18vSjq-1" vertex="1">
          <mxGeometry y="140" width="295" height="30" as="geometry" />
        </mxCell>
        <mxCell id="_dkzII2BD8TlYQ18vSjq-10" value="+ updatePassword(email:string, tempCode: string, newPassword: string)" style="text;align=left;verticalAlign=middle;spacingLeft=4;spacingRight=4;overflow=hidden;points=[[0,0.5],[1,0.5]];portConstraint=eastwest;rotatable=0;whiteSpace=wrap;html=1;strokeColor=none;" parent="_dkzII2BD8TlYQ18vSjq-1" vertex="1">
          <mxGeometry y="170" width="295" height="40" as="geometry" />
        </mxCell>
        <mxCell id="_dkzII2BD8TlYQ18vSjq-11" value="+ getEventsByHost(email: string): Event[]" style="text;align=left;verticalAlign=middle;spacingLeft=4;spacingRight=4;overflow=hidden;points=[[0,0.5],[1,0.5]];portConstraint=eastwest;rotatable=0;whiteSpace=wrap;html=1;strokeColor=none;" parent="_dkzII2BD8TlYQ18vSjq-1" vertex="1">
          <mxGeometry y="210" width="295" height="30" as="geometry" />
        </mxCell>
        <mxCell id="_dkzII2BD8TlYQ18vSjq-12" value="+ getEventsByAttendee(email: string): Event[]" style="text;align=left;verticalAlign=middle;spacingLeft=4;spacingRight=4;overflow=hidden;points=[[0,0.5],[1,0.5]];portConstraint=eastwest;rotatable=0;whiteSpace=wrap;html=1;strokeColor=none;" parent="_dkzII2BD8TlYQ18vSjq-1" vertex="1">
          <mxGeometry y="240" width="295" height="30" as="geometry" />
        </mxCell>
        <mxCell id="_dkzII2BD8TlYQ18vSjq-13" value="+ getPublicEvents(): Event[]" style="text;align=left;verticalAlign=middle;spacingLeft=4;spacingRight=4;overflow=hidden;points=[[0,0.5],[1,0.5]];portConstraint=eastwest;rotatable=0;whiteSpace=wrap;html=1;strokeColor=none;" parent="_dkzII2BD8TlYQ18vSjq-1" vertex="1">
          <mxGeometry y="270" width="295" height="30" as="geometry" />
        </mxCell>
        <mxCell id="_dkzII2BD8TlYQ18vSjq-14" value="+ updateUserFLNames(email: string, fname: string, lname: string)" style="text;align=left;verticalAlign=middle;spacingLeft=4;spacingRight=4;overflow=hidden;points=[[0,0.5],[1,0.5]];portConstraint=eastwest;rotatable=0;whiteSpace=wrap;html=1;strokeColor=none;" parent="_dkzII2BD8TlYQ18vSjq-1" vertex="1">
          <mxGeometry y="300" width="295" height="40" as="geometry" />
        </mxCell>
        <mxCell id="_dkzII2BD8TlYQ18vSjq-16" value="+ addEvent(event: Event): int" style="text;align=left;verticalAlign=middle;spacingLeft=4;spacingRight=4;overflow=hidden;points=[[0,0.5],[1,0.5]];portConstraint=eastwest;rotatable=0;whiteSpace=wrap;html=1;strokeColor=none;" parent="_dkzII2BD8TlYQ18vSjq-1" vertex="1">
          <mxGeometry y="340" width="295" height="30" as="geometry" />
        </mxCell>
        <mxCell id="_dkzII2BD8TlYQ18vSjq-17" value="+ getGuests(eventID: int): Guest[]" style="text;align=left;verticalAlign=middle;spacingLeft=4;spacingRight=4;overflow=hidden;points=[[0,0.5],[1,0.5]];portConstraint=eastwest;rotatable=0;whiteSpace=wrap;html=1;strokeColor=none;" parent="_dkzII2BD8TlYQ18vSjq-1" vertex="1">
          <mxGeometry y="370" width="295" height="30" as="geometry" />
        </mxCell>
        <mxCell id="_dkzII2BD8TlYQ18vSjq-15" value="+ addGuest(guest: Guest): Guest[]" style="text;align=left;verticalAlign=middle;spacingLeft=4;spacingRight=4;overflow=hidden;points=[[0,0.5],[1,0.5]];portConstraint=eastwest;rotatable=0;whiteSpace=wrap;html=1;strokeColor=none;" parent="_dkzII2BD8TlYQ18vSjq-1" vertex="1">
          <mxGeometry y="400" width="295" height="30" as="geometry" />
        </mxCell>
        <mxCell id="_dkzII2BD8TlYQ18vSjq-18" value="+ addGuestResponse(guest: Guest, loggedIn: boolean)" style="text;align=left;verticalAlign=middle;spacingLeft=4;spacingRight=4;overflow=hidden;points=[[0,0.5],[1,0.5]];portConstraint=eastwest;rotatable=0;whiteSpace=wrap;html=1;strokeColor=none;" parent="_dkzII2BD8TlYQ18vSjq-1" vertex="1">
          <mxGeometry y="430" width="295" height="40" as="geometry" />
        </mxCell>
        <mxCell id="_dkzII2BD8TlYQ18vSjq-19" value="+ getChat(eventID: int): Message[]" style="text;align=left;verticalAlign=middle;spacingLeft=4;spacingRight=4;overflow=hidden;points=[[0,0.5],[1,0.5]];portConstraint=eastwest;rotatable=0;whiteSpace=wrap;html=1;strokeColor=none;" parent="_dkzII2BD8TlYQ18vSjq-1" vertex="1">
          <mxGeometry y="470" width="295" height="30" as="geometry" />
        </mxCell>
        <mxCell id="ZCMRn5ar2wK1mYu21y1M-72" value="+ addMessage(message: Message): Message[]" style="text;align=left;verticalAlign=middle;spacingLeft=4;spacingRight=4;overflow=hidden;points=[[0,0.5],[1,0.5]];portConstraint=eastwest;rotatable=0;whiteSpace=wrap;html=1;strokeColor=none;" parent="_dkzII2BD8TlYQ18vSjq-1" vertex="1">
          <mxGeometry y="500" width="295" height="30" as="geometry" />
        </mxCell>
        <mxCell id="_dkzII2BD8TlYQ18vSjq-20" value="+ isOnGuestList(eventID: int, email: string): boolean" style="text;align=left;verticalAlign=middle;spacingLeft=4;spacingRight=4;overflow=hidden;points=[[0,0.5],[1,0.5]];portConstraint=eastwest;rotatable=0;whiteSpace=wrap;html=1;strokeColor=none;" parent="_dkzII2BD8TlYQ18vSjq-1" vertex="1">
          <mxGeometry y="530" width="295" height="30" as="geometry" />
        </mxCell>
        <mxCell id="07TD3PqsCoJIRFLpou1o-18" value="LoadGoogleLoginPage" style="swimlane;fontStyle=1;align=center;verticalAlign=top;childLayout=stackLayout;horizontal=1;startSize=26;horizontalStack=0;resizeParent=1;resizeParentMax=0;resizeLast=0;collapsible=1;marginBottom=0;whiteSpace=wrap;html=1;" vertex="1" parent="1">
          <mxGeometry x="1060" y="50" width="160" height="138" as="geometry" />
        </mxCell>
        <mxCell id="07TD3PqsCoJIRFLpou1o-21" value="+ INPUT email: string" style="text;strokeColor=none;fillColor=none;align=left;verticalAlign=top;spacingLeft=4;spacingRight=4;overflow=hidden;rotatable=0;points=[[0,0.5],[1,0.5]];portConstraint=eastwest;whiteSpace=wrap;html=1;" vertex="1" parent="07TD3PqsCoJIRFLpou1o-18">
          <mxGeometry y="26" width="160" height="26" as="geometry" />
        </mxCell>
        <mxCell id="07TD3PqsCoJIRFLpou1o-23" value="+ INPUT password: string" style="text;strokeColor=none;fillColor=none;align=left;verticalAlign=top;spacingLeft=4;spacingRight=4;overflow=hidden;rotatable=0;points=[[0,0.5],[1,0.5]];portConstraint=eastwest;whiteSpace=wrap;html=1;" vertex="1" parent="07TD3PqsCoJIRFLpou1o-18">
          <mxGeometry y="52" width="160" height="26" as="geometry" />
        </mxCell>
        <mxCell id="07TD3PqsCoJIRFLpou1o-22" value="+ OUTPUT sessionID: int" style="text;strokeColor=none;fillColor=none;align=left;verticalAlign=top;spacingLeft=4;spacingRight=4;overflow=hidden;rotatable=0;points=[[0,0.5],[1,0.5]];portConstraint=eastwest;whiteSpace=wrap;html=1;" vertex="1" parent="07TD3PqsCoJIRFLpou1o-18">
          <mxGeometry y="78" width="160" height="26" as="geometry" />
        </mxCell>
        <mxCell id="07TD3PqsCoJIRFLpou1o-19" value="" style="line;strokeWidth=1;fillColor=none;align=left;verticalAlign=middle;spacingTop=-1;spacingLeft=3;spacingRight=3;rotatable=0;labelPosition=right;points=[];portConstraint=eastwest;strokeColor=inherit;" vertex="1" parent="07TD3PqsCoJIRFLpou1o-18">
          <mxGeometry y="104" width="160" height="8" as="geometry" />
        </mxCell>
        <mxCell id="07TD3PqsCoJIRFLpou1o-20" value="+ loadGoogleLoginPage()" style="text;strokeColor=none;fillColor=none;align=left;verticalAlign=top;spacingLeft=4;spacingRight=4;overflow=hidden;rotatable=0;points=[[0,0.5],[1,0.5]];portConstraint=eastwest;whiteSpace=wrap;html=1;" vertex="1" parent="07TD3PqsCoJIRFLpou1o-18">
          <mxGeometry y="112" width="160" height="26" as="geometry" />
        </mxCell>
        <mxCell id="07TD3PqsCoJIRFLpou1o-24" value="Login" style="swimlane;fontStyle=1;align=center;verticalAlign=top;childLayout=stackLayout;horizontal=1;startSize=26;horizontalStack=0;resizeParent=1;resizeParentMax=0;resizeLast=0;collapsible=1;marginBottom=0;whiteSpace=wrap;html=1;" vertex="1" parent="1">
          <mxGeometry x="1369" y="50" width="190" height="138" as="geometry" />
        </mxCell>
        <mxCell id="07TD3PqsCoJIRFLpou1o-25" value="+ INPUT email: string" style="text;strokeColor=none;fillColor=none;align=left;verticalAlign=top;spacingLeft=4;spacingRight=4;overflow=hidden;rotatable=0;points=[[0,0.5],[1,0.5]];portConstraint=eastwest;whiteSpace=wrap;html=1;" vertex="1" parent="07TD3PqsCoJIRFLpou1o-24">
          <mxGeometry y="26" width="190" height="26" as="geometry" />
        </mxCell>
        <mxCell id="07TD3PqsCoJIRFLpou1o-26" value="+ INPUT password: string" style="text;strokeColor=none;fillColor=none;align=left;verticalAlign=top;spacingLeft=4;spacingRight=4;overflow=hidden;rotatable=0;points=[[0,0.5],[1,0.5]];portConstraint=eastwest;whiteSpace=wrap;html=1;" vertex="1" parent="07TD3PqsCoJIRFLpou1o-24">
          <mxGeometry y="52" width="190" height="26" as="geometry" />
        </mxCell>
        <mxCell id="07TD3PqsCoJIRFLpou1o-27" value="+ OUTPUT sessionID: int" style="text;strokeColor=none;fillColor=none;align=left;verticalAlign=top;spacingLeft=4;spacingRight=4;overflow=hidden;rotatable=0;points=[[0,0.5],[1,0.5]];portConstraint=eastwest;whiteSpace=wrap;html=1;" vertex="1" parent="07TD3PqsCoJIRFLpou1o-24">
          <mxGeometry y="78" width="190" height="26" as="geometry" />
        </mxCell>
        <mxCell id="07TD3PqsCoJIRFLpou1o-28" value="" style="line;strokeWidth=1;fillColor=none;align=left;verticalAlign=middle;spacingTop=-1;spacingLeft=3;spacingRight=3;rotatable=0;labelPosition=right;points=[];portConstraint=eastwest;strokeColor=inherit;" vertex="1" parent="07TD3PqsCoJIRFLpou1o-24">
          <mxGeometry y="104" width="190" height="8" as="geometry" />
        </mxCell>
        <mxCell id="07TD3PqsCoJIRFLpou1o-29" value="+ verifyAccount(): int" style="text;strokeColor=none;fillColor=none;align=left;verticalAlign=top;spacingLeft=4;spacingRight=4;overflow=hidden;rotatable=0;points=[[0,0.5],[1,0.5]];portConstraint=eastwest;whiteSpace=wrap;html=1;" vertex="1" parent="07TD3PqsCoJIRFLpou1o-24">
          <mxGeometry y="112" width="190" height="26" as="geometry" />
        </mxCell>
        <mxCell id="07TD3PqsCoJIRFLpou1o-32" value="Uses" style="edgeStyle=orthogonalEdgeStyle;rounded=0;orthogonalLoop=1;jettySize=auto;html=1;exitX=1;exitY=0.5;exitDx=0;exitDy=0;entryX=0;entryY=0.5;entryDx=0;entryDy=0;dashed=1;endArrow=open;endFill=0;movable=1;resizable=1;rotatable=1;deletable=1;editable=1;locked=0;connectable=1;" edge="1" parent="1" source="07TD3PqsCoJIRFLpou1o-23" target="07TD3PqsCoJIRFLpou1o-26">
          <mxGeometry relative="1" as="geometry" />
        </mxCell>
        <mxCell id="07TD3PqsCoJIRFLpou1o-15" value="LoadCreateAccountPage" style="swimlane;fontStyle=1;align=center;verticalAlign=top;childLayout=stackLayout;horizontal=1;startSize=26;horizontalStack=0;resizeParent=1;resizeParentMax=0;resizeLast=0;collapsible=1;marginBottom=0;whiteSpace=wrap;html=1;" vertex="1" parent="1">
          <mxGeometry x="1053" y="580" width="160" height="60" as="geometry" />
        </mxCell>
        <mxCell id="07TD3PqsCoJIRFLpou1o-16" value="" style="line;strokeWidth=1;fillColor=none;align=left;verticalAlign=middle;spacingTop=-1;spacingLeft=3;spacingRight=3;rotatable=0;labelPosition=right;points=[];portConstraint=eastwest;strokeColor=inherit;" vertex="1" parent="07TD3PqsCoJIRFLpou1o-15">
          <mxGeometry y="26" width="160" height="8" as="geometry" />
        </mxCell>
        <mxCell id="07TD3PqsCoJIRFLpou1o-17" value="+ loadCreateAccountPage()" style="text;strokeColor=none;fillColor=none;align=left;verticalAlign=top;spacingLeft=4;spacingRight=4;overflow=hidden;rotatable=0;points=[[0,0.5],[1,0.5]];portConstraint=eastwest;whiteSpace=wrap;html=1;" vertex="1" parent="07TD3PqsCoJIRFLpou1o-15">
          <mxGeometry y="34" width="160" height="26" as="geometry" />
        </mxCell>
        <mxCell id="07TD3PqsCoJIRFLpou1o-11" value="LoadResetPasswordPage" style="swimlane;fontStyle=1;align=center;verticalAlign=top;childLayout=stackLayout;horizontal=1;startSize=26;horizontalStack=0;resizeParent=1;resizeParentMax=0;resizeLast=0;collapsible=1;marginBottom=0;whiteSpace=wrap;html=1;" vertex="1" parent="1">
          <mxGeometry x="1045" y="658" width="170" height="60" as="geometry" />
        </mxCell>
        <mxCell id="07TD3PqsCoJIRFLpou1o-13" value="" style="line;strokeWidth=1;fillColor=none;align=left;verticalAlign=middle;spacingTop=-1;spacingLeft=3;spacingRight=3;rotatable=0;labelPosition=right;points=[];portConstraint=eastwest;strokeColor=inherit;" vertex="1" parent="07TD3PqsCoJIRFLpou1o-11">
          <mxGeometry y="26" width="170" height="8" as="geometry" />
        </mxCell>
        <mxCell id="07TD3PqsCoJIRFLpou1o-14" value="+ loadResetPasswordPage()" style="text;strokeColor=none;fillColor=none;align=left;verticalAlign=top;spacingLeft=4;spacingRight=4;overflow=hidden;rotatable=0;points=[[0,0.5],[1,0.5]];portConstraint=eastwest;whiteSpace=wrap;html=1;" vertex="1" parent="07TD3PqsCoJIRFLpou1o-11">
          <mxGeometry y="34" width="170" height="26" as="geometry" />
        </mxCell>
        <mxCell id="07TD3PqsCoJIRFLpou1o-114" value="Uses" style="edgeStyle=orthogonalEdgeStyle;rounded=0;orthogonalLoop=1;jettySize=auto;html=1;entryX=0;entryY=0.5;entryDx=0;entryDy=0;dashed=1;" edge="1" parent="1" source="07TD3PqsCoJIRFLpou1o-102" target="_dkzII2BD8TlYQ18vSjq-20">
          <mxGeometry relative="1" as="geometry" />
        </mxCell>
        <mxCell id="07TD3PqsCoJIRFLpou1o-102" value="LoadUserEventsPage" style="swimlane;fontStyle=1;align=center;verticalAlign=top;childLayout=stackLayout;horizontal=1;startSize=26;horizontalStack=0;resizeParent=1;resizeParentMax=0;resizeLast=0;collapsible=1;marginBottom=0;whiteSpace=wrap;html=1;" vertex="1" parent="1">
          <mxGeometry x="1010" y="750" width="230" height="112" as="geometry" />
        </mxCell>
        <mxCell id="07TD3PqsCoJIRFLpou1o-103" value="+ INPUT sessionID: int" style="text;strokeColor=none;fillColor=none;align=left;verticalAlign=top;spacingLeft=4;spacingRight=4;overflow=hidden;rotatable=0;points=[[0,0.5],[1,0.5]];portConstraint=eastwest;whiteSpace=wrap;html=1;" vertex="1" parent="07TD3PqsCoJIRFLpou1o-102">
          <mxGeometry y="26" width="230" height="26" as="geometry" />
        </mxCell>
        <mxCell id="07TD3PqsCoJIRFLpou1o-104" value="" style="line;strokeWidth=1;fillColor=none;align=left;verticalAlign=middle;spacingTop=-1;spacingLeft=3;spacingRight=3;rotatable=0;labelPosition=right;points=[];portConstraint=eastwest;strokeColor=inherit;" vertex="1" parent="07TD3PqsCoJIRFLpou1o-102">
          <mxGeometry y="52" width="230" height="8" as="geometry" />
        </mxCell>
        <mxCell id="07TD3PqsCoJIRFLpou1o-106" value="+ sendCode()" style="text;strokeColor=none;fillColor=none;align=left;verticalAlign=top;spacingLeft=4;spacingRight=4;overflow=hidden;rotatable=0;points=[[0,0.5],[1,0.5]];portConstraint=eastwest;whiteSpace=wrap;html=1;" vertex="1" parent="07TD3PqsCoJIRFLpou1o-102">
          <mxGeometry y="60" width="230" height="26" as="geometry" />
        </mxCell>
        <mxCell id="07TD3PqsCoJIRFLpou1o-107" value="+ loadResetPasswordPage(email: string)" style="text;strokeColor=none;fillColor=none;align=left;verticalAlign=top;spacingLeft=4;spacingRight=4;overflow=hidden;rotatable=0;points=[[0,0.5],[1,0.5]];portConstraint=eastwest;whiteSpace=wrap;html=1;" vertex="1" parent="07TD3PqsCoJIRFLpou1o-102">
          <mxGeometry y="86" width="230" height="26" as="geometry" />
        </mxCell>
        <mxCell id="07TD3PqsCoJIRFLpou1o-108" value="Uses" style="edgeStyle=orthogonalEdgeStyle;rounded=0;orthogonalLoop=1;jettySize=auto;html=1;entryX=1;entryY=0.5;entryDx=0;entryDy=0;dashed=1;dashPattern=8 8;endArrow=open;endFill=0;" edge="1" parent="1" source="07TD3PqsCoJIRFLpou1o-65" target="07TD3PqsCoJIRFLpou1o-83">
          <mxGeometry relative="1" as="geometry" />
        </mxCell>
        <mxCell id="07TD3PqsCoJIRFLpou1o-113" value="Uses" style="edgeStyle=orthogonalEdgeStyle;rounded=0;orthogonalLoop=1;jettySize=auto;html=1;entryX=0.5;entryY=0;entryDx=0;entryDy=0;dashed=1;" edge="1" parent="1" source="07TD3PqsCoJIRFLpou1o-65" target="07TD3PqsCoJIRFLpou1o-57">
          <mxGeometry relative="1" as="geometry" />
        </mxCell>
        <mxCell id="07TD3PqsCoJIRFLpou1o-65" value="UpdatePassword" style="swimlane;fontStyle=1;align=center;verticalAlign=top;childLayout=stackLayout;horizontal=1;startSize=26;horizontalStack=0;resizeParent=1;resizeParentMax=0;resizeLast=0;collapsible=1;marginBottom=0;whiteSpace=wrap;html=1;" vertex="1" parent="1">
          <mxGeometry x="1047" y="250" width="190" height="220" as="geometry" />
        </mxCell>
        <mxCell id="07TD3PqsCoJIRFLpou1o-66" value="+ INPUT email: string" style="text;strokeColor=none;fillColor=none;align=left;verticalAlign=top;spacingLeft=4;spacingRight=4;overflow=hidden;rotatable=0;points=[[0,0.5],[1,0.5]];portConstraint=eastwest;whiteSpace=wrap;html=1;" vertex="1" parent="07TD3PqsCoJIRFLpou1o-65">
          <mxGeometry y="26" width="190" height="26" as="geometry" />
        </mxCell>
        <mxCell id="07TD3PqsCoJIRFLpou1o-89" value="+ INPUT resetCode: string" style="text;strokeColor=none;fillColor=none;align=left;verticalAlign=top;spacingLeft=4;spacingRight=4;overflow=hidden;rotatable=0;points=[[0,0.5],[1,0.5]];portConstraint=eastwest;whiteSpace=wrap;html=1;" vertex="1" parent="07TD3PqsCoJIRFLpou1o-65">
          <mxGeometry y="52" width="190" height="26" as="geometry" />
        </mxCell>
        <mxCell id="07TD3PqsCoJIRFLpou1o-90" value="+ INPUT password: string" style="text;strokeColor=none;fillColor=none;align=left;verticalAlign=top;spacingLeft=4;spacingRight=4;overflow=hidden;rotatable=0;points=[[0,0.5],[1,0.5]];portConstraint=eastwest;whiteSpace=wrap;html=1;" vertex="1" parent="07TD3PqsCoJIRFLpou1o-65">
          <mxGeometry y="78" width="190" height="26" as="geometry" />
        </mxCell>
        <mxCell id="07TD3PqsCoJIRFLpou1o-91" value="+ INPUT confirmPassword: string" style="text;strokeColor=none;fillColor=none;align=left;verticalAlign=top;spacingLeft=4;spacingRight=4;overflow=hidden;rotatable=0;points=[[0,0.5],[1,0.5]];portConstraint=eastwest;whiteSpace=wrap;html=1;" vertex="1" parent="07TD3PqsCoJIRFLpou1o-65">
          <mxGeometry y="104" width="190" height="26" as="geometry" />
        </mxCell>
        <mxCell id="07TD3PqsCoJIRFLpou1o-99" value="+ OUPUT match: boolean" style="text;strokeColor=none;fillColor=none;align=left;verticalAlign=top;spacingLeft=4;spacingRight=4;overflow=hidden;rotatable=0;points=[[0,0.5],[1,0.5]];portConstraint=eastwest;whiteSpace=wrap;html=1;" vertex="1" parent="07TD3PqsCoJIRFLpou1o-65">
          <mxGeometry y="130" width="190" height="26" as="geometry" />
        </mxCell>
        <mxCell id="07TD3PqsCoJIRFLpou1o-67" value="" style="line;strokeWidth=1;fillColor=none;align=left;verticalAlign=middle;spacingTop=-1;spacingLeft=3;spacingRight=3;rotatable=0;labelPosition=right;points=[];portConstraint=eastwest;strokeColor=inherit;" vertex="1" parent="07TD3PqsCoJIRFLpou1o-65">
          <mxGeometry y="156" width="190" height="8" as="geometry" />
        </mxCell>
        <mxCell id="07TD3PqsCoJIRFLpou1o-68" value="+ updatePassword(email: string, resetCode: string, password: string)" style="text;strokeColor=none;fillColor=none;align=left;verticalAlign=top;spacingLeft=4;spacingRight=4;overflow=hidden;rotatable=0;points=[[0,0.5],[1,0.5]];portConstraint=eastwest;whiteSpace=wrap;html=1;" vertex="1" parent="07TD3PqsCoJIRFLpou1o-65">
          <mxGeometry y="164" width="190" height="56" as="geometry" />
        </mxCell>
        <mxCell id="07TD3PqsCoJIRFLpou1o-57" value="LoadLoginPage" style="swimlane;fontStyle=1;align=center;verticalAlign=top;childLayout=stackLayout;horizontal=1;startSize=26;horizontalStack=0;resizeParent=1;resizeParentMax=0;resizeLast=0;collapsible=1;marginBottom=0;whiteSpace=wrap;html=1;" vertex="1" parent="1">
          <mxGeometry x="1054" y="500" width="160" height="60" as="geometry" />
        </mxCell>
        <mxCell id="07TD3PqsCoJIRFLpou1o-58" value="" style="line;strokeWidth=1;fillColor=none;align=left;verticalAlign=middle;spacingTop=-1;spacingLeft=3;spacingRight=3;rotatable=0;labelPosition=right;points=[];portConstraint=eastwest;strokeColor=inherit;" vertex="1" parent="07TD3PqsCoJIRFLpou1o-57">
          <mxGeometry y="26" width="160" height="8" as="geometry" />
        </mxCell>
        <mxCell id="07TD3PqsCoJIRFLpou1o-59" value="+ loadLoginPage()" style="text;strokeColor=none;fillColor=none;align=left;verticalAlign=top;spacingLeft=4;spacingRight=4;overflow=hidden;rotatable=0;points=[[0,0.5],[1,0.5]];portConstraint=eastwest;whiteSpace=wrap;html=1;" vertex="1" parent="07TD3PqsCoJIRFLpou1o-57">
          <mxGeometry y="34" width="160" height="26" as="geometry" />
        </mxCell>
        <mxCell id="07TD3PqsCoJIRFLpou1o-82" value="CheckPassword" style="swimlane;fontStyle=1;align=center;verticalAlign=top;childLayout=stackLayout;horizontal=1;startSize=26;horizontalStack=0;resizeParent=1;resizeParentMax=0;resizeLast=0;collapsible=1;marginBottom=0;whiteSpace=wrap;html=1;" vertex="1" parent="1">
          <mxGeometry x="770" y="317" width="190" height="138" as="geometry" />
        </mxCell>
        <mxCell id="07TD3PqsCoJIRFLpou1o-83" value="+ INPUT password: string" style="text;strokeColor=none;fillColor=none;align=left;verticalAlign=top;spacingLeft=4;spacingRight=4;overflow=hidden;rotatable=0;points=[[0,0.5],[1,0.5]];portConstraint=eastwest;whiteSpace=wrap;html=1;" vertex="1" parent="07TD3PqsCoJIRFLpou1o-82">
          <mxGeometry y="26" width="190" height="26" as="geometry" />
        </mxCell>
        <mxCell id="07TD3PqsCoJIRFLpou1o-86" value="+ INPUT confirmPassword: string" style="text;strokeColor=none;fillColor=none;align=left;verticalAlign=top;spacingLeft=4;spacingRight=4;overflow=hidden;rotatable=0;points=[[0,0.5],[1,0.5]];portConstraint=eastwest;whiteSpace=wrap;html=1;" vertex="1" parent="07TD3PqsCoJIRFLpou1o-82">
          <mxGeometry y="52" width="190" height="26" as="geometry" />
        </mxCell>
        <mxCell id="07TD3PqsCoJIRFLpou1o-88" value="+ OUTPUT match: boolean" style="text;strokeColor=none;fillColor=none;align=left;verticalAlign=top;spacingLeft=4;spacingRight=4;overflow=hidden;rotatable=0;points=[[0,0.5],[1,0.5]];portConstraint=eastwest;whiteSpace=wrap;html=1;" vertex="1" parent="07TD3PqsCoJIRFLpou1o-82">
          <mxGeometry y="78" width="190" height="26" as="geometry" />
        </mxCell>
        <mxCell id="07TD3PqsCoJIRFLpou1o-84" value="" style="line;strokeWidth=1;fillColor=none;align=left;verticalAlign=middle;spacingTop=-1;spacingLeft=3;spacingRight=3;rotatable=0;labelPosition=right;points=[];portConstraint=eastwest;strokeColor=inherit;" vertex="1" parent="07TD3PqsCoJIRFLpou1o-82">
          <mxGeometry y="104" width="190" height="8" as="geometry" />
        </mxCell>
        <mxCell id="07TD3PqsCoJIRFLpou1o-87" value="+ checkPassword(): boolean" style="text;strokeColor=none;fillColor=none;align=left;verticalAlign=top;spacingLeft=4;spacingRight=4;overflow=hidden;rotatable=0;points=[[0,0.5],[1,0.5]];portConstraint=eastwest;whiteSpace=wrap;html=1;" vertex="1" parent="07TD3PqsCoJIRFLpou1o-82">
          <mxGeometry y="112" width="190" height="26" as="geometry" />
        </mxCell>
        <mxCell id="07TD3PqsCoJIRFLpou1o-94" value="Uses" style="edgeStyle=orthogonalEdgeStyle;rounded=0;orthogonalLoop=1;jettySize=auto;html=1;exitX=1;exitY=0.5;exitDx=0;exitDy=0;entryX=0;entryY=0.5;entryDx=0;entryDy=0;dashed=1;dashPattern=8 8;endArrow=open;endFill=0;movable=1;resizable=1;rotatable=1;deletable=1;editable=1;locked=0;connectable=1;" edge="1" parent="1" source="07TD3PqsCoJIRFLpou1o-43" target="07TD3PqsCoJIRFLpou1o-83">
          <mxGeometry relative="1" as="geometry" />
        </mxCell>
        <mxCell id="07TD3PqsCoJIRFLpou1o-35" value="Signup" style="swimlane;fontStyle=1;align=center;verticalAlign=top;childLayout=stackLayout;horizontal=1;startSize=26;horizontalStack=0;resizeParent=1;resizeParentMax=0;resizeLast=0;collapsible=1;marginBottom=0;whiteSpace=wrap;html=1;" vertex="1" parent="1">
          <mxGeometry x="480" y="264" width="190" height="250" as="geometry" />
        </mxCell>
        <mxCell id="07TD3PqsCoJIRFLpou1o-36" value="+ INPUT email: string" style="text;strokeColor=none;fillColor=none;align=left;verticalAlign=top;spacingLeft=4;spacingRight=4;overflow=hidden;rotatable=0;points=[[0,0.5],[1,0.5]];portConstraint=eastwest;whiteSpace=wrap;html=1;" vertex="1" parent="07TD3PqsCoJIRFLpou1o-35">
          <mxGeometry y="26" width="190" height="26" as="geometry" />
        </mxCell>
        <mxCell id="07TD3PqsCoJIRFLpou1o-44" value="+ INPUT firstName: string" style="text;strokeColor=none;fillColor=none;align=left;verticalAlign=top;spacingLeft=4;spacingRight=4;overflow=hidden;rotatable=0;points=[[0,0.5],[1,0.5]];portConstraint=eastwest;whiteSpace=wrap;html=1;" vertex="1" parent="07TD3PqsCoJIRFLpou1o-35">
          <mxGeometry y="52" width="190" height="26" as="geometry" />
        </mxCell>
        <mxCell id="07TD3PqsCoJIRFLpou1o-43" value="+ INPUT lastName: string" style="text;strokeColor=none;fillColor=none;align=left;verticalAlign=top;spacingLeft=4;spacingRight=4;overflow=hidden;rotatable=0;points=[[0,0.5],[1,0.5]];portConstraint=eastwest;whiteSpace=wrap;html=1;" vertex="1" parent="07TD3PqsCoJIRFLpou1o-35">
          <mxGeometry y="78" width="190" height="26" as="geometry" />
        </mxCell>
        <mxCell id="07TD3PqsCoJIRFLpou1o-37" value="+ INPUT password: string" style="text;strokeColor=none;fillColor=none;align=left;verticalAlign=top;spacingLeft=4;spacingRight=4;overflow=hidden;rotatable=0;points=[[0,0.5],[1,0.5]];portConstraint=eastwest;whiteSpace=wrap;html=1;" vertex="1" parent="07TD3PqsCoJIRFLpou1o-35">
          <mxGeometry y="104" width="190" height="26" as="geometry" />
        </mxCell>
        <mxCell id="07TD3PqsCoJIRFLpou1o-38" value="+ INPUT confirmPassword: string" style="text;strokeColor=none;fillColor=none;align=left;verticalAlign=top;spacingLeft=4;spacingRight=4;overflow=hidden;rotatable=0;points=[[0,0.5],[1,0.5]];portConstraint=eastwest;whiteSpace=wrap;html=1;" vertex="1" parent="07TD3PqsCoJIRFLpou1o-35">
          <mxGeometry y="130" width="190" height="26" as="geometry" />
        </mxCell>
        <mxCell id="07TD3PqsCoJIRFLpou1o-39" value="+ OUTPUT sessionID: int" style="text;strokeColor=none;fillColor=none;align=left;verticalAlign=top;spacingLeft=4;spacingRight=4;overflow=hidden;rotatable=0;points=[[0,0.5],[1,0.5]];portConstraint=eastwest;whiteSpace=wrap;html=1;" vertex="1" parent="07TD3PqsCoJIRFLpou1o-35">
          <mxGeometry y="156" width="190" height="26" as="geometry" />
        </mxCell>
        <mxCell id="07TD3PqsCoJIRFLpou1o-40" value="" style="line;strokeWidth=1;fillColor=none;align=left;verticalAlign=middle;spacingTop=-1;spacingLeft=3;spacingRight=3;rotatable=0;labelPosition=right;points=[];portConstraint=eastwest;strokeColor=inherit;" vertex="1" parent="07TD3PqsCoJIRFLpou1o-35">
          <mxGeometry y="182" width="190" height="8" as="geometry" />
        </mxCell>
        <mxCell id="07TD3PqsCoJIRFLpou1o-45" value="+ createAccount(email: string, firstName: string, lastName: string, password: string): int" style="text;strokeColor=none;fillColor=none;align=left;verticalAlign=top;spacingLeft=4;spacingRight=4;overflow=hidden;rotatable=0;points=[[0,0.5],[1,0.5]];portConstraint=eastwest;whiteSpace=wrap;html=1;" vertex="1" parent="07TD3PqsCoJIRFLpou1o-35">
          <mxGeometry y="190" width="190" height="60" as="geometry" />
        </mxCell>
        <mxCell id="07TD3PqsCoJIRFLpou1o-55" value="Uses" style="edgeStyle=orthogonalEdgeStyle;rounded=0;orthogonalLoop=1;jettySize=auto;html=1;exitX=1;exitY=0.5;exitDx=0;exitDy=0;entryX=0;entryY=0.5;entryDx=0;entryDy=0;endArrow=open;endFill=0;dashed=1;movable=1;resizable=1;rotatable=1;deletable=1;editable=1;locked=0;connectable=1;" edge="1" parent="1" source="07TD3PqsCoJIRFLpou1o-52" target="07TD3PqsCoJIRFLpou1o-43">
          <mxGeometry relative="1" as="geometry" />
        </mxCell>
        <mxCell id="07TD3PqsCoJIRFLpou1o-46" value="LoadGoogleSignupPage" style="swimlane;fontStyle=1;align=center;verticalAlign=top;childLayout=stackLayout;horizontal=1;startSize=26;horizontalStack=0;resizeParent=1;resizeParentMax=0;resizeLast=0;collapsible=1;marginBottom=0;whiteSpace=wrap;html=1;" vertex="1" parent="1">
          <mxGeometry x="230" y="263" width="160" height="190" as="geometry" />
        </mxCell>
        <mxCell id="07TD3PqsCoJIRFLpou1o-47" value="+ INPUT email: string" style="text;strokeColor=none;fillColor=none;align=left;verticalAlign=top;spacingLeft=4;spacingRight=4;overflow=hidden;rotatable=0;points=[[0,0.5],[1,0.5]];portConstraint=eastwest;whiteSpace=wrap;html=1;" vertex="1" parent="07TD3PqsCoJIRFLpou1o-46">
          <mxGeometry y="26" width="160" height="26" as="geometry" />
        </mxCell>
        <mxCell id="07TD3PqsCoJIRFLpou1o-53" value="+ INPUT firstName: string" style="text;strokeColor=none;fillColor=none;align=left;verticalAlign=top;spacingLeft=4;spacingRight=4;overflow=hidden;rotatable=0;points=[[0,0.5],[1,0.5]];portConstraint=eastwest;whiteSpace=wrap;html=1;" vertex="1" parent="07TD3PqsCoJIRFLpou1o-46">
          <mxGeometry y="52" width="160" height="26" as="geometry" />
        </mxCell>
        <mxCell id="07TD3PqsCoJIRFLpou1o-52" value="+ INPUT lastName: string" style="text;strokeColor=none;fillColor=none;align=left;verticalAlign=top;spacingLeft=4;spacingRight=4;overflow=hidden;rotatable=0;points=[[0,0.5],[1,0.5]];portConstraint=eastwest;whiteSpace=wrap;html=1;" vertex="1" parent="07TD3PqsCoJIRFLpou1o-46">
          <mxGeometry y="78" width="160" height="26" as="geometry" />
        </mxCell>
        <mxCell id="07TD3PqsCoJIRFLpou1o-48" value="+ INPUT password: string" style="text;strokeColor=none;fillColor=none;align=left;verticalAlign=top;spacingLeft=4;spacingRight=4;overflow=hidden;rotatable=0;points=[[0,0.5],[1,0.5]];portConstraint=eastwest;whiteSpace=wrap;html=1;" vertex="1" parent="07TD3PqsCoJIRFLpou1o-46">
          <mxGeometry y="104" width="160" height="26" as="geometry" />
        </mxCell>
        <mxCell id="07TD3PqsCoJIRFLpou1o-49" value="+ OUTPUT sessionID: int" style="text;strokeColor=none;fillColor=none;align=left;verticalAlign=top;spacingLeft=4;spacingRight=4;overflow=hidden;rotatable=0;points=[[0,0.5],[1,0.5]];portConstraint=eastwest;whiteSpace=wrap;html=1;" vertex="1" parent="07TD3PqsCoJIRFLpou1o-46">
          <mxGeometry y="130" width="160" height="26" as="geometry" />
        </mxCell>
        <mxCell id="07TD3PqsCoJIRFLpou1o-50" value="" style="line;strokeWidth=1;fillColor=none;align=left;verticalAlign=middle;spacingTop=-1;spacingLeft=3;spacingRight=3;rotatable=0;labelPosition=right;points=[];portConstraint=eastwest;strokeColor=inherit;" vertex="1" parent="07TD3PqsCoJIRFLpou1o-46">
          <mxGeometry y="156" width="160" height="8" as="geometry" />
        </mxCell>
        <mxCell id="07TD3PqsCoJIRFLpou1o-51" value="+ loadGoogleLoginPage()" style="text;strokeColor=none;fillColor=none;align=left;verticalAlign=top;spacingLeft=4;spacingRight=4;overflow=hidden;rotatable=0;points=[[0,0.5],[1,0.5]];portConstraint=eastwest;whiteSpace=wrap;html=1;" vertex="1" parent="07TD3PqsCoJIRFLpou1o-46">
          <mxGeometry y="164" width="160" height="26" as="geometry" />
        </mxCell>
        <mxCell id="07TD3PqsCoJIRFLpou1o-60" value="LoadPasswordUpdatePage" style="swimlane;fontStyle=1;align=center;verticalAlign=top;childLayout=stackLayout;horizontal=1;startSize=26;horizontalStack=0;resizeParent=1;resizeParentMax=0;resizeLast=0;collapsible=1;marginBottom=0;whiteSpace=wrap;html=1;" vertex="1" parent="1">
          <mxGeometry x="1010" y="880" width="230" height="138" as="geometry" />
        </mxCell>
        <mxCell id="07TD3PqsCoJIRFLpou1o-63" value="+ INPUT email: string" style="text;strokeColor=none;fillColor=none;align=left;verticalAlign=top;spacingLeft=4;spacingRight=4;overflow=hidden;rotatable=0;points=[[0,0.5],[1,0.5]];portConstraint=eastwest;whiteSpace=wrap;html=1;" vertex="1" parent="07TD3PqsCoJIRFLpou1o-60">
          <mxGeometry y="26" width="230" height="26" as="geometry" />
        </mxCell>
        <mxCell id="07TD3PqsCoJIRFLpou1o-61" value="" style="line;strokeWidth=1;fillColor=none;align=left;verticalAlign=middle;spacingTop=-1;spacingLeft=3;spacingRight=3;rotatable=0;labelPosition=right;points=[];portConstraint=eastwest;strokeColor=inherit;" vertex="1" parent="07TD3PqsCoJIRFLpou1o-60">
          <mxGeometry y="52" width="230" height="8" as="geometry" />
        </mxCell>
        <mxCell id="07TD3PqsCoJIRFLpou1o-62" value="+ getResetCode(email): string" style="text;strokeColor=none;fillColor=none;align=left;verticalAlign=top;spacingLeft=4;spacingRight=4;overflow=hidden;rotatable=0;points=[[0,0.5],[1,0.5]];portConstraint=eastwest;whiteSpace=wrap;html=1;" vertex="1" parent="07TD3PqsCoJIRFLpou1o-60">
          <mxGeometry y="60" width="230" height="26" as="geometry" />
        </mxCell>
        <mxCell id="07TD3PqsCoJIRFLpou1o-71" value="+ sendCode()" style="text;strokeColor=none;fillColor=none;align=left;verticalAlign=top;spacingLeft=4;spacingRight=4;overflow=hidden;rotatable=0;points=[[0,0.5],[1,0.5]];portConstraint=eastwest;whiteSpace=wrap;html=1;" vertex="1" parent="07TD3PqsCoJIRFLpou1o-60">
          <mxGeometry y="86" width="230" height="26" as="geometry" />
        </mxCell>
        <mxCell id="07TD3PqsCoJIRFLpou1o-69" value="+ loadResetPasswordPage(email: string)" style="text;strokeColor=none;fillColor=none;align=left;verticalAlign=top;spacingLeft=4;spacingRight=4;overflow=hidden;rotatable=0;points=[[0,0.5],[1,0.5]];portConstraint=eastwest;whiteSpace=wrap;html=1;" vertex="1" parent="07TD3PqsCoJIRFLpou1o-60">
          <mxGeometry y="112" width="230" height="26" as="geometry" />
        </mxCell>
        <mxCell id="07TD3PqsCoJIRFLpou1o-109" value="Uses" style="edgeStyle=orthogonalEdgeStyle;rounded=0;orthogonalLoop=1;jettySize=auto;html=1;exitX=1;exitY=0.5;exitDx=0;exitDy=0;entryX=0;entryY=0.5;entryDx=0;entryDy=0;dashed=1;" edge="1" parent="1" source="07TD3PqsCoJIRFLpou1o-90" target="_dkzII2BD8TlYQ18vSjq-7">
          <mxGeometry x="0.0133" relative="1" as="geometry">
            <mxPoint as="offset" />
          </mxGeometry>
        </mxCell>
        <mxCell id="07TD3PqsCoJIRFLpou1o-111" value="Uses" style="edgeStyle=orthogonalEdgeStyle;rounded=0;orthogonalLoop=1;jettySize=auto;html=1;entryX=0.45;entryY=0.007;entryDx=0;entryDy=0;entryPerimeter=0;dashed=1;" edge="1" parent="1" source="07TD3PqsCoJIRFLpou1o-24" target="_dkzII2BD8TlYQ18vSjq-1">
          <mxGeometry relative="1" as="geometry" />
        </mxCell>
      </root>
    </mxGraphModel>
  </diagram>
</mxfile>
